<svg viewBox="0 0 1289.77 426.53" xmlns="http://www.w3.org/2000/svg" xmlns:xlink="http://www.w3.org/1999/xlink"><linearGradient id="a" gradientUnits="userSpaceOnUse" x1="126.79" x2="373.1" y1="213.27" y2="213.27"><stop offset="0" stop-color="#23ab53"/><stop offset="1" stop-color="#17688f"/></linearGradient><linearGradient id="b" x1="120.61" x2="379.28" xlink:href="#a" y1="213.27" y2="213.27"/><text fill="#fff" font-family="SegoeWP-Black, Segoe WP Black" font-size="200" font-weight="800" transform="translate(443.35 281.79)">Chari<tspan fill="#17688f" x="510.45" y="0">j</tspan><tspan x="602.07" y="0">li</tspan></text><path d="m1026.27 179.18 7.92-6.79 11.89 20.61s7.08 14.81-9.15 26.32c0 0-32 15.19-32.08 17.55s0-14.62 0-14.62l20.76-9.25 6.27-3.77s7.46-2.5 3.59-13c0 0-8.65-16.56-9.26-16.61s.06-.44.06-.44z" fill="#17688f"/><path d="m1024.85 177.44 8.14-8.14-6.78-5.83-5.08-9-.8-1.36s-.9-1.89-.48-6.37c0 0-3.3-2.41-3.91 3.68a10.75 10.75 0 0 0 1.37 6.84s-8.64-1.56-5.33 3.68c0 0-3.73 1.55-.48 4.15 0 0-4.76 1.41-.14 3.54 0 0-7.8 1.22-5.88 4.15 0 0 .69 2.88 5.69-.8a3.42 3.42 0 0 1 3 .16l1.27.73s1.08 1.84 5.71 1.46c-.02-.01 1.09-.85 3.7 3.11z" fill="#17688f"/><ellipse cx="249.94" cy="213.27" fill="url(#a)" rx="123.16" ry="123.85"/><ellipse cx="249.94" cy="213.27" fill="none" rx="128.84" ry="129.57" stroke="url(#b)" stroke-miterlimit="10"/><g fill="#fff"><ellipse cx="246.28" cy="143.44" rx="20.46" ry="22.04"/><path d="m228.42 179.89h34.58v131.11s-.86 23.81-7.63 26c-8.74 2.89-42.4-2.23-54.86-10.23 0 0 24.18 8.55 27.71-16.18z"/><path d="m293.74 178.68 11.72-10.05 17.54 30.37s10.46 21.9-13.53 38.91c0 0-47.28 22.46-47.42 25.95s0-21.62 0-21.62l30.68-13.67 9.27-5.57s11-3.7 5.3-19.25c0 0-12.79-24.48-13.68-24.55s.12-.52.12-.52z"/><path d="m291.65 176.1 12-12-10-8.62-7.52-13.32-1.19-2s-1.32-2.79-.69-9.41c0 0-4.89-3.56-5.79 5.44 0 0-.91 5.58 2 10.11 0 0-12.76-2.3-7.88 5.44 0 0-5.51 2.3-.7 6.13 0 0-7 2.1-.21 5.24 0 0-11.53 1.81-8.69 6.13 0 0 1 4.26 8.41-1.18a5 5 0 0 1 4.4.24l1.88 1.08s1.6 2.72 8.44 2.16c.03-.05 1.68-1.3 5.54 4.56z"/></g></svg>