<svg viewBox="0 0 1000 1000" xmlns="http://www.w3.org/2000/svg" xmlns:xlink="http://www.w3.org/1999/xlink"><linearGradient id="a" gradientUnits="userSpaceOnUse" x1="205.61" x2="794.39" y1="368.8" y2="368.8"><stop offset="0" stop-color="#23ab53"/><stop offset="1" stop-color="#17688f"/></linearGradient><linearGradient id="b" x1="191.53" x2="808.47" xlink:href="#a" y1="368.8" y2="368.8"/><ellipse cx="500" cy="368.8" fill="url(#a)" rx="294.39" ry="296.06"/><ellipse cx="500" cy="368.8" fill="none" rx="307.97" ry="309.71" stroke="url(#b)" stroke-miterlimit="10"/><g fill="#fff"><ellipse cx="491.23" cy="201.88" rx="48.91" ry="52.68"/><path d="m448.55 289h82.68v313.4s-2.07 56.9-18.23 62.24c-20.89 6.9-101.35-5.32-131.13-24.45 0 0 57.78 20.45 66.23-38.67z"/><path d="m604.69 286.12 28-24 42 72.69s25 52.34-32.34 93c0 0-113 53.68-113.35 62s0-51.68 0-51.68l73.34-32.67 22.18-13.34s26.33-8.83 12.66-46c0 0-30.56-58.51-32.7-58.68s.21-1.32.21-1.32z"/><path d="m599.69 280 28.75-28.75-24-20.59-18-31.84-2.84-4.84s-3.16-6.66-1.66-22.5c0 0-11.67-8.5-13.84 13 0 0-2.17 13.34 4.83 24.17 0 0-30.5-5.5-18.83 13 0 0-13.17 5.5-1.67 14.67 0 0-16.84 5-.5 12.5 0 0-27.56 4.33-20.78 14.67 0 0 2.44 10.17 20.11-2.84 0 0 4.09-2.33 10.51.59l4.5 2.58s3.83 6.5 20.17 5.17c.08.01 4.02-2.99 13.25 11.01z"/></g><text fill="#17688f" font-family="SegoeWP-Black, Segoe WP Black" font-size="261.16" font-weight="800" transform="translate(26.44 879.57)">Chari<tspan fill="#21a952" x="666.55" y="0">j</tspan><tspan x="786.19" y="0">li</tspan></text><path d="m787.62 745.59 10.38-8.87 15.52 26.85s9.24 19.35-12 34.38c0 0-41.76 19.83-41.89 22.91s0-19.09 0-19.09l27.11-12.08 8.19-4.92s9.73-3.27 4.68-17c0 0-11.29-21.62-12.08-21.68s.09-.5.09-.5z" fill="#20a955"/><path d="m785.77 743.31 10.63-10.63-8.85-7.61-6.64-11.76-1-1.79s-1.17-2.46-.62-8.32c0 0-4.31-3.14-5.11 4.81a14.1 14.1 0 0 0 1.79 8.93s-11.28-2-7 4.81c0 0-4.86 2-.61 5.42 0 0-6.22 1.85-.19 4.62 0 0-10.18 1.6-7.68 5.42 0 0 .91 3.76 7.44-1.05a4.43 4.43 0 0 1 3.88.22l1.66 1s1.42 2.4 7.46 1.91c-.02-.05 1.43-1.16 4.84 4.02z" fill="#20a955"/></svg>