<svg viewBox="0 0 1289.77 426.53" xmlns="http://www.w3.org/2000/svg"><text fill="#fff" font-family="SegoeWP-Black, Segoe WP Black" font-size="321.7" font-weight="800" transform="translate(61.55 312.23)">Chari<tspan fill="#17688f" x="821.06" y="0">j</tspan><tspan x="968.43" y="0">li</tspan></text><g fill="#17688f"><path d="m999.18 147.18 12.74-10.92 19.13 33.08s11.38 23.83-14.72 42.34c0 0-51.45 24.44-51.6 28.23s0-23.52 0-23.52l33.38-14.88 10.1-6.07s12-4 5.76-20.94c0 0-13.91-26.63-14.88-26.71s.09-.61.09-.61z"/><path d="m996.9 144.38 13.1-13.09-10.9-9.38-8.18-14.49-1.29-2.2s-1.45-3-.76-10.24c0 0-5.32-3.87-6.3 5.92 0 0-1 6.07 2.2 11 0 0-13.89-2.51-8.58 5.92 0 0-6 2.5-.75 6.67 0 0-7.67 2.28-.23 5.7 0 0-12.55 2-9.46 6.67 0 0 1.11 4.63 9.15-1.29 0 0 1.86-1.06 4.78.27l2.05 1.17s1.75 3 9.19 2.36c-.01 0 1.78-1.37 5.98 5.01z"/></g></svg>