<svg viewBox="0 0 1000 1000" xmlns="http://www.w3.org/2000/svg"><ellipse cx="500" cy="500" fill="none" rx="492.24" ry="495.03" stroke="#fff" stroke-miterlimit="10"/><path d="m500 26.79c-259.87 0-470.55 211.86-470.55 473.21a473.41 473.41 0 0 0 283.55 434.37c13 4 91.65 24.21 104-62.41l.71-499.5h132.2v236.8l113.69-50.64 35.4-21.32s42.09-14.12 20.25-73.54c0 0-48.85-93.52-52.27-93.79s.31-2.13.31-2.13l44.76-38.37 67.15 116.17s40 83.67-51.69 148.68c0 0-152.32 72.34-177.64 94.48v184.58s-3.27 90.18-28.81 99.35c250.12-11.1 449.49-218.49 449.49-472.73 0-261.35-210.67-473.21-470.55-473.21zm-14 290.6c-43.18 0-78.18-37.69-78.18-84.19s34.99-84.2 78.18-84.2 78.18 37.7 78.18 84.2-35.01 84.19-78.18 84.19zm173.34 40.61c-14.75-22.37-21.05-17.58-21.05-17.58-26.12 2.13-32.24-8.26-32.24-8.26l-7.2-4.13c-10.26-4.66-16.78-.93-16.78-.93-28.25 20.78-32.16 4.53-32.16 4.53-10.83-16.52 33.22-23.45 33.22-23.45-26.11-12 .8-20 .8-20-18.38-14.65 2.67-23.44 2.67-23.44-18.66-29.58 30.1-20.79 30.1-20.79-11.19-17.31-7.72-38.63-7.72-38.63 3.46-34.37 22.11-20.78 22.11-20.78-2.4 25.31 2.67 36 2.67 36l4.53 7.72 28.71 50.86 38.3 32.88z" fill="#fff"/></svg>