<svg viewBox="0 0 1000 1000" xmlns="http://www.w3.org/2000/svg"><text fill="#17688f" font-family="SegoeWP-Black, Segoe WP Black" font-size="200" font-weight="800" transform="translate(137.34 561.52)">Chari<tspan fill="#21a952" x="510.45" y="0">j</tspan><tspan x="602.07" y="0">li</tspan></text><g fill="#20a955"><path d="m720.26 458.92 7.93-6.8 11.88 20.57s7.08 14.82-9.15 26.33c0 0-32 15.19-32.08 17.55s0-14.63 0-14.63l20.76-9.25 6.27-3.77s7.46-2.5 3.59-13c0 0-8.65-16.56-9.25-16.61s.05-.39.05-.39z"/><path d="m718.85 457.17 8.15-8.17-6.77-5.82-5.09-9-.8-1.37s-.9-1.89-.48-6.37c0 0-3.3-2.41-3.91 3.68a10.83 10.83 0 0 0 1.35 6.88s-8.64-1.56-5.33 3.68c0 0-3.73 1.56-.48 4.15 0 0-4.76 1.42-.14 3.54 0 0-7.8 1.23-5.88 4.15 0 0 .69 2.88 5.69-.8a3.42 3.42 0 0 1 3 .16l1.27.74s1.09 1.84 5.71 1.46c-.02-.02 1.09-.87 3.71 3.09z"/></g></svg>