<svg viewBox="0 0 1000 1000" xmlns="http://www.w3.org/2000/svg" xmlns:xlink="http://www.w3.org/1999/xlink"><linearGradient id="a" gradientUnits="userSpaceOnUse" x1="29.45" x2="970.55" y1="500" y2="500"><stop offset="0" stop-color="#23ab53"/><stop offset="1" stop-color="#17688f"/></linearGradient><linearGradient id="b" x1="7.26" x2="992.74" xlink:href="#a" y1="500" y2="500"/><ellipse cx="500" cy="500" fill="url(#a)" rx="470.55" ry="473.21"/><ellipse cx="500" cy="500" fill="none" rx="492.24" ry="495.03" stroke="url(#b)" stroke-miterlimit="10"/><g fill="#fff"><ellipse cx="485.99" cy="233.2" rx="78.18" ry="84.2"/><path d="m417.76 372.46h132.15v500.92s-3.29 90.94-29.13 99.47c-33.39 11-162-8.5-209.6-39.07 0 0 92.37 32.68 105.87-61.82z"/><path d="m667.33 367.84 44.76-38.37 67.15 116.17s40 83.67-51.69 148.68c0 0-180.66 85.8-181.19 99.12s0-82.6 0-82.6l117.24-52.22 35.4-21.32s42.09-14.12 20.25-73.54c0 0-48.85-93.52-52.27-93.79s.35-2.13.35-2.13z"/><path d="m659.34 358 46-46-38.34-32.88-28.73-50.9-4.53-7.72s-5.07-10.66-2.67-36c0 0-18.65-13.59-22.11 20.78 0 0-3.47 21.32 7.72 38.63 0 0-48.76-8.79-30.1 20.79 0 0-21.05 8.79-2.67 23.44 0 0-26.91 8-.8 20 0 0-44 6.93-33.22 23.45 0 0 3.91 16.25 32.16-4.53 0 0 6.52-3.73 16.78.93l7.2 4.13s6.12 10.39 32.24 8.26c.02.02 6.32-4.77 21.07 17.62z"/></g></svg>