<svg enable-background="new 0 0 1000 1000" viewBox="0 0 1000 1000" xmlns="http://www.w3.org/2000/svg" xmlns:xlink="http://www.w3.org/1999/xlink"><clipPath id="a"><path d="m303.6 1007s42.4-272.6 205.8-268.1c0 0 176.3-16.1 198.4 268.1z"/></clipPath><circle cx="501" cy="500.3" fill="#28464b" r="477"/><circle cx="501" cy="500.3" fill="none" r="493.3" stroke="#29464b" stroke-miterlimit="10" stroke-width="6"/><path d="m460.2 657.9 5.5-21.2s166.6-299.2 181.4-299.2c0 0 49.7 19.3 64.4 108.6 0 0 65.4-228.3-187.8-317.6 0 0-189.7-60.8-309.3 122.5 0 0-80.1 128-3.7 267.9s240.3 154.6 249.5 139z" fill="#fff"/><circle clip-path="url(#a)" cx="501" cy="500.3" fill="#6e1616" r="493.3"/><path d="m444.5 753 19-113.6s165.7-306.3 186-302c0 0 112.9 53.4 62.6 356.6l-127.3-17.2 13.2 84.7z" fill="#e5a3a1"/><path d="m723.6 600.5s-27.3-74.3-115.3 5.4c0 0-25.8 14.7-35.9-96.7l-29.9 35.4-3.7 97.1s-1.8 28.5 55.2 39.6c0 0 91.6 21.4 125.7 11.2" fill="#e5e5e5"/><g fill="#efefef"><path d="m394.9 657.1s36.5-279.6 270-435.3c0 0 4.9 95.6-15.4 115.7-20.2 20.1-186 302-186 302l-3.4 18.4c.1 0-11.5 12.3-65.2-.8z"/><path d="m252.4 576s73.4-275.3 370.9-399.2l41.6 44.9s-292 108.8-328.6 414.6"/><path d="m177.4 399.3s108.6-231.8 383.8-255.6l51.3 29.5s-278.5 55.3-408.7 331.5c-15.3-33.7-25.6-68.5-26.4-105.4z"/></g><g fill="#d1d2d3"><path d="m394.9 657.1 11.4 2.5s83.2-254.8 258.6-437.9c0 0-187.3 76.7-270 435.4z"/><path d="m177.4 400.1 1.5 19.9c66.9-106.5 335.1-270 335.1-270-4-12.4-330.5 104.9-336.6 250.1z"/><path d="m272.7 595.3s106-263.8 277.8-382.9c0 0-207.3 95.1-298.1 362.4z"/></g></svg>