<?xml version="1.0" encoding="utf-8"?>
<!-- Generator: Adobe Illustrator 24.2.1, SVG Export Plug-In . SVG Version: 6.00 Build 0)  -->
<svg version="1.1" id="Layer_1" xmlns="http://www.w3.org/2000/svg" xmlns:xlink="http://www.w3.org/1999/xlink" x="0px" y="0px"
	 viewBox="0 0 1000 1000" style="enable-background:new 0 0 1000 1000;" xml:space="preserve">
<style type="text/css">
	.st0{fill:#003459;stroke:#003459;stroke-width:6.896;stroke-miterlimit:10;}
	.st1{fill:#007EA7;}
</style>
<g>
	<g>
		<path class="st0" d="M326.8,516.8v46.1H143.2V240.3h45.6v276.6h137.9L326.8,516.8L326.8,516.8z"/>
		<path class="st0" d="M471,567.5c-15.1,0.1-30.1-2.9-44-9c-13.4-5.8-25.5-14.2-35.7-24.7c-10.3-10.6-18.5-23-24.2-36.6
			c-6-14.1-9.1-29.2-9-44.5c-0.1-15.2,2.9-30.3,9-44.3c5.8-13.5,14-25.8,24.2-36.4c10.2-10.5,22.3-18.8,35.7-24.7
			c13.9-6,28.9-9.1,44-9c16.9,0,31.5,2.6,43.8,7.8c12,5,22.9,12.4,32,21.7c9.3,9.5,17,20.5,22.8,32.5c6.4,13,11.8,26.5,16.1,40.3
			c-31.7,6.8-61.8,12.7-90.6,17.7c-28.8,5-58.1,10.2-88.3,15.4c4.2,13.7,12.6,25.7,24,34.3c11.4,9,25.6,13.8,40.1,13.6
			c7.8,0.1,15.6-0.6,23.3-2.1c5.8-1.1,11.6-2.9,17-5.3c4.4-2,8.6-4.4,12.5-7.4c3.1-2.4,6.1-5,9-7.8l32.7,31.3
			c-11.4,12.2-25.4,21.8-41,27.9C509.1,564.5,491.3,567.5,471,567.5z M471,384.1c-13.6-0.2-27,4-38.1,12
			c-11,7.7-19.4,18.4-24.2,30.9c9.8-1.5,19.9-3.2,30.2-5.1c10.3-1.9,20.4-3.6,30.2-5.3l28.1-4.8c8.9-1.5,17.1-2.9,24.5-4.2
			c-6.3-7.3-14.1-13.2-22.8-17.3C490.3,386.2,480.6,384,471,384.1z"/>
		<path class="st0" d="M631,241.2h45.6V361c9.3-7.1,19.8-12.7,30.9-16.6c26.3-8.9,54.9-7.8,80.4,3c13.4,5.8,25.5,14.2,35.7,24.7
			c10.3,10.6,18.5,23,24.2,36.6c12,28.4,12,60.5,0,89c-5.7,13.6-13.9,25.9-24.2,36.4c-10.2,10.4-22.4,18.7-35.7,24.5
			c-25.5,10.8-54.2,11.9-80.4,3c-11.1-3.8-21.5-9.4-30.9-16.6v18H631V241.2z M743.8,521.9c9.1,0,18-1.9,26.3-5.5
			c8-3.5,15.3-8.5,21.4-14.7c6.1-6.3,10.9-13.6,14.3-21.7c3.6-8.5,5.4-17.6,5.3-26.7c0.1-18.2-7-35.7-19.6-48.9
			c-6.1-6.2-13.4-11.2-21.4-14.7c-16.7-7.4-35.8-7.4-52.6,0c-8,3.5-15.3,8.5-21.4,14.7c-12.6,13.1-19.6,30.7-19.6,48.9
			c-0.1,9.2,1.7,18.3,5.3,26.7c3.4,8.1,8.2,15.4,14.3,21.7c6.1,6.2,13.4,11.2,21.4,14.7C725.8,520,734.8,521.9,743.8,521.9z"/>
		<path class="st1" d="M143.2,585.7h50.1c7.6-0.1,15.1,1.4,22.1,4.2c6.7,2.7,12.8,6.6,17.9,11.5c5.1,4.9,9.2,10.8,12,17.3
			c3,6.8,4.5,14.1,4.4,21.5c0.1,7.4-1.4,14.8-4.4,21.6c-2.8,6.5-6.9,12.5-12,17.4c-10.8,10.3-25.1,16-40,16h-25.8v62.1h-24.3
			L143.2,585.7L143.2,585.7z M167.6,610v60.9h25.8c4.3,0,8.5-0.8,12.5-2.3c7.6-2.9,13.7-8.8,16.9-16.3c1.6-3.8,2.5-7.9,2.5-12
			s-0.8-8.2-2.5-11.9c-3.2-7.3-9.2-13.1-16.7-15.9c-4.1-1.6-8.4-2.4-12.8-2.3L167.6,610z"/>
		<path class="st1" d="M288.8,585.7v59.1c4-2.3,8.2-4.1,12.6-5.4c4.6-1.3,9.3-2,14.1-2c12.7-0.1,25,4.7,34.2,13.5
			c4.6,4.4,8.3,9.5,11.2,15.1c3,5.9,4.8,12.4,5.4,19v0.2l6.1,71.7l-24.3,0.2l-6.2-69.7c-0.3-3.2-1.1-6.4-2.3-9.5
			c-1.2-3-3-5.8-5.2-8.2c-2.3-2.5-5-4.5-8.1-5.9c-3.4-1.5-7.2-2.3-10.9-2.2c-3.5,0-7,0.7-10.3,2c-3.2,1.2-6.1,3-8.6,5.3
			c-2.4,2.2-4.4,4.8-5.8,7.7c-1.4,3-2.1,6.3-2.1,9.6v70.9h-24.3V585.7H288.8z"/>
		<path class="st1" d="M448.3,759.7c-8.2,0.1-16.3-1.5-23.9-4.7c-7.3-3-13.8-7.4-19.4-12.9c-5.5-5.6-10-12.2-13-19.4
			c-6.4-15.3-6.4-32.5,0-47.9c6.1-14.6,17.8-26.3,32.4-32.4c15.4-6.4,32.6-6.4,48,0c7.2,3.1,13.8,7.5,19.4,13
			c5.6,5.5,10,12.1,13,19.4c6.2,15.3,6.2,32.5,0,47.9c-3,7.3-7.4,13.9-13,19.4C480.3,753.6,464.6,759.9,448.3,759.7z M448.3,662.3
			c-4.9,0-9.8,0.9-14.4,2.8c-4.4,1.8-8.4,4.4-11.8,7.7c-3.4,3.3-6,7.2-7.9,11.5c-1.9,4.6-2.9,9.5-2.8,14.5c0,4.9,0.9,9.7,2.8,14.2
			c8,18.8,29.7,27.5,48.4,19.5c8.8-3.7,15.8-10.7,19.5-19.5c1.9-4.5,2.9-9.3,2.8-14.2c0.1-5-0.9-9.9-2.8-14.5
			c-1.8-4.3-4.5-8.3-7.8-11.5c-3.4-3.3-7.3-5.9-11.6-7.7C458.3,663.2,453.3,662.2,448.3,662.3z"/>
		<path class="st1" d="M524.3,757.3V640h24.3v4.9c4-2.3,8.2-4.1,12.6-5.4c17.1-5,35.6-0.6,48.7,11.5c4.6,4.3,8.4,9.5,11,15.2
			c2.8,6.1,4.6,12.7,5.1,19.4l6.1,71.7h-24.3l-5.9-69.7c-0.8-7.7-3.6-13.9-8.5-18.5c-4.8-4.7-10.9-7-18.3-7c-3.5,0-7,0.6-10.3,2
			c-3.2,1.2-6.1,3-8.6,5.3c-2.4,2.2-4.4,4.8-5.8,7.7c-1.4,3-2.1,6.3-2.1,9.6v70.7L524.3,757.3z"/>
		<path class="st1" d="M707,759.7c-8.1,0.1-16-1.6-23.4-4.8c-7.1-3.1-13.6-7.6-19-13.1c-5.5-5.7-9.8-12.3-12.9-19.5
			c-3.2-7.5-4.8-15.5-4.8-23.7c-0.1-8.1,1.6-16.1,4.8-23.6c3.1-7.2,7.4-13.8,12.9-19.4c5.4-5.6,11.9-10,19-13.1
			c7.4-3.2,15.4-4.9,23.4-4.8c9,0,16.8,1.4,23.3,4.2c6.4,2.7,12.2,6.6,17.1,11.6c4.9,5.1,9,10.9,12.1,17.3
			c3.4,6.9,6.3,14.1,8.6,21.5c-16.9,3.6-32.9,6.8-48.2,9.5s-31,5.4-47,8.2c2.2,7.3,6.7,13.7,12.8,18.3c6.1,4.8,13.6,7.3,21.3,7.2
			c4.2,0.1,8.3-0.3,12.4-1.1c3.1-0.6,6.2-1.6,9.1-2.8c2.4-1,4.6-2.4,6.6-3.9c1.7-1.3,3.3-2.7,4.8-4.2l17.5,16.7
			c-6.1,6.5-13.6,11.6-21.8,14.9C727.3,758.2,717.8,759.7,707,759.7z M707,662.1c-7.3-0.1-14.3,2.1-20.2,6.3
			c-5.8,4.1-10.3,9.8-12.9,16.5c5.2-0.8,10.6-1.7,16.1-2.7s10.8-1.9,16.1-2.8l15-2.6c4.7-0.8,9.1-1.6,13-2.2
			c-3.4-3.9-7.5-7-12.2-9.2C717.3,663.1,712.1,662,707,662.1z"/>
		<path class="st1" d="M812.1,759.7c-6.5,0-12.9-1.3-18.9-3.9c-5.8-2.6-11-6.3-15.2-11l18.1-16.2c1.8,2.3,4.2,4.1,6.9,5.2
			c2.9,1.2,6,1.7,9.1,1.7c1.8,0,3.5-0.2,5.3-0.5c2.4-0.3,4.8-1,7-2c2.3-1,4.3-2.4,5.9-4.3c1.6-1.9,2.3-4.5,2-7.7
			c-0.3-2.3-2.2-4.4-5.8-6.5c-4.3-2.4-8.8-4.6-13.4-6.5c-3.6-1.5-7.4-3.2-11.3-5c-3.8-1.8-7.5-4.1-10.8-6.8c-3.2-2.6-6-5.6-8.2-9.1
			c-2.3-3.8-3.6-8.1-3.8-12.5c-0.6-5.4,0.2-10.9,2.3-15.9c2-4.5,5-8.4,8.8-11.6c3.9-3.2,8.4-5.6,13.2-7c5.2-1.6,10.5-2.4,15.9-2.4
			c6.5,0,12.9,1.3,18.9,3.8c5.8,2.5,11,6.2,15.2,10.9l-18.1,16.4c-1.8-2.3-4.2-4.1-6.9-5.1c-2.9-1.2-6-1.8-9.1-1.7
			c-7,0-11.9,1.5-14.5,4.4c-1.8,2.4-2.2,4.7-1.1,6.7c1.2,2.2,2.9,4.1,5,5.5c2.4,1.7,4.9,3.1,7.6,4.2c2.8,1.1,4.9,2.1,6.3,2.7
			c3.6,1.6,7.4,3.4,11.3,5.4c3.9,1.9,7.5,4.3,10.9,7c3.3,2.7,6.2,5.9,8.3,9.6c2.3,4.1,3.5,8.7,3.3,13.4c0.2,10.7-4.4,21-12.5,28
			c-4.1,3.5-8.9,6.2-14,8C824.3,758.8,818.1,759.8,812.1,759.7z"/>
	</g>
</g>
</svg>
