<?xml version="1.0" encoding="utf-8"?>
<!-- Generator: Adobe Illustrator 24.2.1, SVG Export Plug-In . SVG Version: 6.00 Build 0)  -->
<svg version="1.1" id="Layer_1" xmlns="http://www.w3.org/2000/svg" xmlns:xlink="http://www.w3.org/1999/xlink" x="0px" y="0px"
	 viewBox="0 0 1024 1024" style="enable-background:new 0 0 1024 1024;" xml:space="preserve">
<style type="text/css">
	.st0{fill:#007EA7;}
	.st1{fill:#FFFFFF;stroke:#FFFFFF;stroke-width:6.862;stroke-miterlimit:10;}
	.st2{fill:#FFFFFF;stroke:#FFFFFF;stroke-width:0.9017;stroke-miterlimit:10;}
</style>
<g>
	<path class="st0" d="M0,0h1024v1024H0V0z"/>
	<path class="st1" d="M339.6,528.7v45.9H157v-321h45.4v275.2L339.6,528.7L339.6,528.7z"/>
	<path class="st1" d="M483.1,579.2c-15.1,0.1-30-3-43.8-8.9c-13.3-5.8-25.4-14.2-35.5-24.5c-10.2-10.5-18.4-22.9-24.1-36.4
		c-6-14-9-29-8.9-44.3c-0.1-15.1,2.9-30.1,8.9-44.1c5.8-13.4,14-25.7,24.1-36.2s22.2-18.8,35.5-24.5c13.8-6,28.8-9,43.8-8.9
		c16.9,0,31.4,2.6,43.6,7.8c11.9,5,22.8,12.4,31.8,21.6c9.3,9.5,17,20.4,22.7,32.4c6.3,13,11.7,26.3,16.1,40.1
		c-31.5,6.8-61.6,12.6-90.2,17.7s-57.9,10.2-87.8,15.3c4.1,13.6,12.5,25.6,23.9,34.2c11.4,8.9,25.4,13.7,39.9,13.5
		c7.8,0.1,15.5-0.6,23.2-2.1c5.9-1.2,11.5-2.9,17-5.2c4.4-2,8.6-4.4,12.4-7.3c3.2-2.4,6.1-5,8.9-7.8l32.6,31.2
		c-11.4,12.2-25.3,21.6-40.8,27.8C521,576.2,503.3,579.2,483.1,579.2z M483.1,396.7c-13.6-0.2-26.9,4.1-37.9,11.9
		c-10.9,7.7-19.3,18.3-24.1,30.7c9.7-1.5,19.8-3.2,30-5c10.3-1.8,20.3-3.6,30-5.3l28-4.8c8.8-1.5,17-2.9,24.3-4.1
		c-6.3-7.2-14.1-13.1-22.7-17.2C502.3,398.7,492.7,396.6,483.1,396.7z"/>
	<path class="st1" d="M642.3,254.5h45.4v119.3c9.3-7.1,19.7-12.7,30.7-16.5c26.1-8.8,54.6-7.8,80.1,3c13.3,5.8,25.4,14.2,35.5,24.5
		c10.2,10.5,18.4,22.9,24.1,36.4c11.9,28.3,11.9,60.2,0,88.5c-5.7,13.5-13.9,25.8-24.1,36.2c-10.2,10.3-22.3,18.6-35.5,24.3
		c-25.4,10.8-53.9,11.8-80.1,3c-11.1-3.8-21.5-9.4-30.7-16.5v17.9h-45.4V254.5z M754.6,533.8c9,0,17.9-1.8,26.1-5.5
		c8-3.5,15.2-8.5,21.4-14.7c6-6.2,10.9-13.5,14.2-21.6c3.5-8.4,5.3-17.5,5.2-26.6c0.1-18.1-6.9-35.5-19.5-48.6
		c-6.1-6.2-13.3-11.2-21.4-14.7c-16.7-7.4-35.6-7.4-52.3,0c-8,3.5-15.2,8.5-21.4,14.7c-12.5,13.1-19.6,30.5-19.5,48.6
		c-0.1,9.1,1.7,18.2,5.2,26.6c3.3,8,8.2,15.3,14.2,21.6c6.1,6.2,13.3,11.2,21.4,14.6C736.7,531.9,745.6,533.8,754.6,533.8z"/>
	<path class="st2" d="M157,597.3h49.9c7.5-0.1,15,1.4,22,4.1c6.7,2.6,12.7,6.5,17.9,11.5c5,4.9,9.1,10.7,12,17.2
		c3,6.8,4.4,14,4.4,21.4c0.1,7.4-1.4,14.7-4.4,21.6c-2.8,6.5-6.9,12.4-12,17.3c-10.7,10.3-25,16-39.9,15.9h-25.6V768h-24.2
		L157,597.3L157,597.3z M181.2,621.5v60.6h25.6c4.2,0,8.5-0.8,12.4-2.3c7.6-2.9,13.6-8.7,16.9-16.2c1.6-3.8,2.4-7.8,2.4-12
		c0-4.1-0.8-8.1-2.4-11.8c-3.2-7.3-9.2-13.1-16.6-15.9c-4.1-1.5-8.4-2.3-12.7-2.3L181.2,621.5z"/>
	<path class="st2" d="M301.8,597.3v58.9c4-2.3,8.2-4.1,12.6-5.4c4.6-1.4,9.3-2,14.1-2c12.7-0.1,24.9,4.7,34.1,13.4
		c4.5,4.3,8.3,9.4,11.1,15.1c3,6,4.8,12.4,5.4,18.9v0.3l6.1,71.3l-24.2,0.3l-6.1-69.3c-0.4-3.2-1.1-6.4-2.3-9.4
		c-1.2-3-3-5.8-5.1-8.2c-2.3-2.5-5-4.5-8-5.9c-3.4-1.5-7.1-2.3-10.9-2.2c-3.5,0-7,0.6-10.3,2c-3.2,1.3-6,3-8.6,5.2
		c-2.4,2.2-4.3,4.8-5.8,7.7c-1.4,3-2.1,6.2-2.1,9.6v70.6h-24.2V597.3H301.8z"/>
	<path class="st2" d="M460.6,770.4c-8.2,0.1-16.2-1.5-23.8-4.7c-7.2-3-13.8-7.3-19.3-12.8s-9.9-12.1-13-19.3
		c-6.3-15.2-6.3-32.4,0-47.6c6.1-14.6,17.7-26.1,32.3-32.3c15.2-6.3,32.5-6.3,47.7,0c7.2,3.1,13.7,7.5,19.3,12.9
		c5.6,5.5,10,12.1,13,19.3c6.2,15.2,6.2,32.4,0,47.6c-3,7.2-7.4,13.8-13,19.3C492.3,764.4,476.7,770.6,460.6,770.4z M460.6,673.5
		c-4.9,0-9.7,0.9-14.2,2.8c-4.3,1.8-8.4,4.4-11.7,7.7c-3.3,3.2-6,7.1-7.8,11.5c-1.9,4.6-2.9,9.5-2.8,14.4c0,4.9,0.9,9.6,2.8,14.2
		c7.9,18.7,29.5,27.4,48.2,19.5c8.7-3.7,15.7-10.7,19.5-19.5c1.9-4.5,2.9-9.3,2.8-14.2c0.1-5-0.9-9.8-2.8-14.4
		c-1.8-4.3-4.5-8.2-7.8-11.5c-3.3-3.2-7.3-5.9-11.5-7.7C470.4,674.4,465.6,673.4,460.6,673.5z"/>
	<path class="st2" d="M536.1,768V651.3h24.2v4.9c4-2.3,8.2-4.1,12.5-5.4c17-5,35.4-0.6,48.5,11.5c4.6,4.3,8.3,9.5,11,15.1
		c2.8,6,4.5,12.6,5.1,19.3l6.1,71.3h-24.3l-5.9-69.3c-0.8-7.7-3.6-13.8-8.4-18.5c-4.8-4.6-10.9-6.9-18.2-6.9c-3.5,0-7,0.6-10.3,2
		c-3.2,1.3-6,3-8.6,5.2c-2.4,2.2-4.3,4.8-5.8,7.7c-1.4,3-2.1,6.2-2.1,9.6V768H536.1z"/>
	<path class="st2" d="M717.9,770.4c-8,0.1-16-1.5-23.4-4.8c-7.1-3.1-13.5-7.5-18.9-13.1s-9.7-12.2-12.8-19.4
		c-3.2-7.5-4.8-15.4-4.8-23.5c-0.1-8,1.5-16.1,4.8-23.4c3.1-7.1,7.4-13.7,12.8-19.3s11.8-10,18.9-13.1c7.4-3.2,15.3-4.9,23.4-4.8
		c8.9,0,16.7,1.4,23.2,4.1c6.4,2.7,12.2,6.6,17,11.5c5,5,9,10.9,12.1,17.2c3.3,6.9,6.2,14.1,8.6,21.4c-16.8,3.6-32.7,6.8-48,9.4
		c-15.2,2.7-30.8,5.4-46.8,8.2c2.3,7.2,6.7,13.6,12.7,18.2c6,4.8,13.5,7.3,21.3,7.2c4.1,0.1,8.3-0.3,12.4-1.1c3.1-0.6,6.1-1.5,9-2.8
		c2.3-1,4.6-2.3,6.6-3.9c1.7-1.3,3.2-2.7,4.8-4.1l17.4,16.5c-6,6.5-13.5,11.5-21.7,14.8C738.1,768.9,728.8,770.4,717.9,770.4z
		 M717.9,673.2c-7.2-0.1-14.2,2.1-20.1,6.3c-5.8,4.1-10.3,9.7-12.8,16.4c5.2-0.8,10.5-1.7,16-2.7c5.4-1,10.8-1.9,16-2.8l14.9-2.5
		c4.7-0.8,9-1.5,13-2.2c-3.3-3.9-7.5-6.9-12.1-9.2C728.1,674.3,723.1,673.2,717.9,673.2z"/>
	<path class="st2" d="M822.5,770.4c-6.5,0-12.9-1.3-18.8-3.9c-5.8-2.5-10.9-6.3-15.1-11l18-16.1c1.8,2.3,4.1,4.1,6.9,5.1
		c2.9,1.2,6,1.7,9,1.7c1.8-0.1,3.5-0.2,5.2-0.5c2.4-0.4,4.8-1,6.9-2c2.3-1,4.2-2.4,5.9-4.2c1.6-1.9,2.3-4.4,2-7.7
		c-0.4-2.3-2.3-4.4-5.8-6.5c-4.3-2.4-8.7-4.6-13.3-6.5c-3.6-1.4-7.4-3.2-11.3-5c-3.8-1.8-7.4-4.1-10.7-6.8c-3.2-2.5-6-5.6-8.2-9
		c-2.3-3.8-3.6-8-3.8-12.4c-0.5-5.4,0.2-10.8,2.3-15.9c2-4.5,5-8.4,8.7-11.5c3.9-3.2,8.4-5.5,13.2-6.9c5.1-1.5,10.5-2.3,15.9-2.3
		c6.5,0,12.9,1.3,18.8,3.8c5.8,2.4,10.9,6.1,15.1,10.8l-18,16.3c-1.8-2.3-4.1-4.1-6.9-5.1c-2.9-1.2-6-1.7-9-1.7
		c-7,0-11.8,1.4-14.4,4.4c-1.8,2.4-2.2,4.7-1.1,6.7c1.2,2.2,2.9,4.1,5,5.5c2.3,1.6,4.9,3.1,7.6,4.1c2.8,1.2,4.9,2.1,6.3,2.7
		c3.6,1.6,7.4,3.4,11.3,5.4c3.9,1.9,7.5,4.2,10.8,6.9c3.3,2.6,6.1,5.9,8.3,9.6c2.3,4.1,3.4,8.7,3.3,13.3
		c0.2,10.6-4.4,20.8-12.4,27.9c-4.1,3.5-8.8,6.2-13.9,7.9C834.5,769.5,828.6,770.5,822.5,770.4z"/>
</g>
</svg>
