<svg enable-background="new 0 0 512 512" viewBox="0 0 512 512" xmlns="http://www.w3.org/2000/svg"><g fill="#fff"><path d="m225.5 0c-124.3 0-225.5 101.2-225.5 225.5s101.2 225.5 225.5 225.5 225.5-101.1 225.5-225.5c-.1-124.3-101.2-225.5-225.5-225.5zm0 409.3c-101.4 0-183.8-82.5-183.8-183.8s82.4-183.9 183.8-183.9 183.8 82.5 183.8 183.8-82.5 183.9-183.8 183.9z"/><path d="m505.9 476.5-119.3-119.4c-8.1-8.1-21.3-8.1-29.4 0s-8.1 21.3 0 29.4l119.3 119.3c4.1 4.1 9.4 6.1 14.7 6.1s10.6-2 14.7-6.1c8.1-8 8.1-21.2 0-29.3z"/></g></svg>