<svg enable-background="new 0 0 1000 800" viewBox="0 0 1000 800" xmlns="http://www.w3.org/2000/svg"><g stroke="#fff" stroke-miterlimit="10"><path d="m140.1 440.7v20.1h-79.8v-140.4h19.9v120.4z" fill="#fff" stroke-width="3"/><path d="m202.9 462.8c-6.6 0-13.1-1.3-19.2-3.9-5.8-2.5-11.1-6.2-15.6-10.7-4.5-4.6-8-10-10.5-15.9-2.6-6.1-3.9-12.7-3.9-19.4 0-6.6 1.3-13.2 3.9-19.3 2.5-5.9 6.1-11.3 10.5-15.9s9.7-8.2 15.6-10.7c6-2.6 12.6-4 19.2-3.9 6.5-.2 13 1 19.1 3.4 5.2 2.2 10 5.4 13.9 9.4 4 4.2 7.4 8.9 9.9 14.1 2.8 5.7 5.1 11.5 7 17.5-13.8 2.9-26.9 5.5-39.4 7.7s-25.3 4.5-38.4 6.7c1.8 6 5.5 11.2 10.4 14.9 5 3.9 11.1 6 17.4 5.9 3.4 0 6.8-.3 10.1-.9 2.5-.5 5-1.3 7.4-2.3 1.9-.8 3.7-1.9 5.4-3.2 1.4-1.1 2.7-2.2 3.9-3.4l14.3 13.7c-5 5.3-11.1 9.5-17.9 12.1-7.3 2.9-15.2 4.2-23.1 4.1zm0-79.9c-5.9-.1-11.7 1.8-16.6 5.2-4.8 3.3-8.4 8-10.5 13.4 4.3-.7 8.7-1.4 13.1-2.2 4.5-.8 8.9-1.6 13.1-2.3l12.2-2.1c3.9-.7 7.4-1.3 10.6-1.8-2.8-3.2-6.1-5.7-9.9-7.5-3.7-1.7-7.8-2.6-12-2.7z" fill="#fff" stroke-width="3"/><path d="m272.5 320.8h19.9v52.1c4.1-3.1 8.6-5.5 13.4-7.2 5.1-1.8 10.5-2.6 15.9-2.6 6.6 0 13.1 1.3 19.1 3.9 5.8 2.5 11.1 6.2 15.5 10.7 4.5 4.6 8 10 10.5 16 5.2 12.4 5.2 26.3 0 38.7-2.5 5.9-6.1 11.3-10.5 15.8-4.5 4.5-9.7 8.1-15.5 10.6-11.1 4.7-23.6 5.2-35 1.3-4.8-1.7-9.4-4.1-13.4-7.2v7.8h-19.9zm49.2 122.1c3.9 0 7.8-.8 11.4-2.4 3.5-1.5 6.7-3.7 9.3-6.4s4.8-5.9 6.2-9.4c1.6-3.7 2.4-7.7 2.4-11.7 0-7.9-3-15.6-8.5-21.3-2.7-2.7-5.8-4.9-9.3-6.4-7.3-3.2-15.6-3.2-22.9 0-3.5 1.5-6.7 3.7-9.3 6.4-5.5 5.7-8.6 13.3-8.6 21.3 0 4 .7 8 2.3 11.6 1.5 3.5 3.6 6.7 6.2 9.4 2.7 2.7 5.8 4.9 9.3 6.4 3.6 1.7 7.5 2.5 11.5 2.5z" fill="#fff" stroke-width="3"/><path d="m390.1 328.8h38.5c5.8 0 11.6 1.1 17 3.2 10.3 4.1 18.6 12.1 23 22.2 2.3 5.2 3.4 10.8 3.4 16.5s-1.1 11.4-3.4 16.6c-2.2 5-5.3 9.6-9.3 13.4-8.3 7.9-19.3 12.3-30.7 12.3h-19.8v47.8h-18.7zm18.7 18.7v46.8h19.8c3.3 0 6.6-.6 9.6-1.8 2.9-1.1 5.6-2.8 7.8-5 2.2-2.1 4-4.7 5.2-7.5 1.3-2.9 1.9-6.1 1.9-9.3s-.6-6.3-1.9-9.2c-2.4-5.7-7.1-10.1-12.8-12.3-3.1-1.2-6.5-1.8-9.8-1.8z" fill="#fff"/><path d="m502.1 328.8v45.5c3.1-1.8 6.3-3.2 9.7-4.2 3.5-1 7.2-1.5 10.9-1.5 4.9 0 9.9.9 14.5 2.7 4.4 1.8 8.4 4.4 11.9 7.6 3.5 3.3 6.4 7.3 8.6 11.6 2.3 4.6 3.7 9.5 4.2 14.6v.2l4.7 55.1-18.7.2-4.8-53.6c-.2-2.5-.8-4.9-1.8-7.3-.9-2.3-2.3-4.5-4-6.3-1.7-1.9-3.9-3.5-6.2-4.5-2.6-1.2-5.5-1.8-8.4-1.7-2.7 0-5.4.5-7.9 1.5-2.4.9-4.7 2.3-6.6 4.1-1.9 1.7-3.4 3.7-4.4 5.9-1.1 2.3-1.6 4.8-1.6 7.4v54.6h-18.6v-132z" fill="#fff"/><path d="m624.8 462.7c-6.3 0-12.6-1.2-18.4-3.6-5.6-2.3-10.6-5.7-14.9-9.9-4.3-4.3-7.7-9.4-10-14.9-4.9-11.8-4.9-25 0-36.8 4.7-11.3 13.7-20.2 24.9-24.9 11.8-4.9 25.1-4.9 36.9 0 5.6 2.4 10.6 5.8 14.9 10 4.3 4.3 7.7 9.3 10 14.9 4.8 11.8 4.8 25 0 36.8-2.3 5.6-5.7 10.7-10 14.9-8.9 8.7-20.9 13.6-33.4 13.5zm0-75c-3.8 0-7.5.7-11 2.2-3.4 1.4-6.4 3.4-9.1 6-2.6 2.5-4.6 5.5-6 8.9-1.5 3.5-2.2 7.3-2.2 11.1s.7 7.5 2.2 11c2.9 6.8 8.3 12.2 15.1 15 14.4 6.1 31-.5 37.2-14.9 0 0 0 0 0-.1 1.5-3.5 2.2-7.2 2.2-11s-.7-7.6-2.2-11.1c-1.4-3.3-3.4-6.3-6-8.9-2.6-2.5-5.7-4.5-9-6-3.5-1.5-7.4-2.2-11.2-2.2z" fill="#fff"/><path d="m683.1 460.8v-90.3h18.7v3.8c3.1-1.8 6.3-3.2 9.7-4.2 13.2-3.8 27.4-.5 37.4 8.9 3.6 3.3 6.4 7.3 8.5 11.7 2.2 4.7 3.5 9.8 4 14.9l4.7 55.1h-18.7l-4.5-53.6c-.6-5.9-2.8-10.7-6.5-14.3-3.8-3.6-8.8-5.6-14.1-5.4-2.7 0-5.4.5-7.9 1.5-2.4.9-4.7 2.3-6.6 4s-3.4 3.7-4.4 6c-1.1 2.3-1.6 4.8-1.6 7.4v54.4z" fill="#fff"/><path d="m823.8 462.7c-6.2 0-12.3-1.2-18-3.7-5.5-2.4-10.5-5.8-14.6-10.1-4.2-4.3-7.6-9.4-9.9-15-2.5-5.8-3.7-12-3.7-18.2s1.2-12.4 3.7-18.1c2.4-5.5 5.7-10.6 9.9-14.9s9.1-7.7 14.6-10.1c5.7-2.5 11.8-3.7 18-3.7 6.1-.2 12.2.9 17.9 3.2 4.9 2.1 9.4 5.1 13.1 8.9 3.8 3.9 7 8.4 9.3 13.3 2.6 5.3 4.8 10.9 6.6 16.5-13 2.8-25.3 5.2-37.1 7.3s-23.8 4.2-36.2 6.3c1.7 5.6 5.1 10.5 9.8 14.1 4.7 3.7 10.5 5.7 16.4 5.6 3.2 0 6.4-.2 9.5-.8 2.4-.5 4.8-1.2 7-2.2 1.8-.8 3.5-1.8 5.1-3 1.3-1 2.5-2.1 3.7-3.2l13.4 12.8c-4.7 5-10.4 8.9-16.8 11.4-6.8 2.5-14.2 3.7-21.7 3.6zm0-75.2c-5.6-.1-11 1.7-15.6 4.9-4.5 3.1-7.9 7.5-9.9 12.6 4-.6 8.2-1.3 12.4-2.1s8.3-1.5 12.4-2.2l11.5-2c3.7-.6 7-1.2 10-1.7-2.6-3-5.8-5.4-9.3-7.1-3.6-1.5-7.5-2.4-11.5-2.4z" fill="#fff"/><path d="m904.6 462.7c-5 0-10-1-14.5-3s-8.5-4.9-11.7-8.5l14-12.5c1.4 1.8 3.2 3.2 5.3 4 2.2.9 4.6 1.3 7 1.3 1.4 0 2.7-.2 4.1-.4 1.9-.3 3.7-.8 5.4-1.5s3.3-1.9 4.5-3.3c1.3-1.7 1.9-3.8 1.5-6-.3-1.8-1.7-3.4-4.4-5-3.3-1.9-6.8-3.5-10.3-5-2.8-1.1-5.7-2.4-8.7-3.9-3-1.4-5.8-3.1-8.3-5.2-2.5-2-4.6-4.3-6.3-7-1.8-2.9-2.8-6.2-2.9-9.6-.5-4.2.2-8.4 1.8-12.3 1.5-3.4 3.8-6.5 6.7-8.9 3-2.5 6.5-4.3 10.2-5.4 4-1.2 8.1-1.8 12.3-1.8 5 0 9.9 1 14.5 2.9 4.5 1.9 8.5 4.8 11.7 8.4l-14 12.6c-1.4-1.8-3.2-3.2-5.3-4-2.2-.9-4.6-1.4-7-1.3-5.4 0-9.1 1.1-11.1 3.4-1.4 1.9-1.7 3.6-.8 5.2.9 1.7 2.3 3.2 3.9 4.2 1.8 1.3 3.8 2.4 5.9 3.2 2.1.9 3.8 1.6 4.9 2.1 2.8 1.3 5.7 2.6 8.7 4.1s5.8 3.3 8.4 5.4 4.7 4.5 6.4 7.4c1.8 3.1 2.7 6.7 2.5 10.3.1 8.2-3.4 16.1-9.6 21.5-3.2 2.7-6.8 4.8-10.8 6.1-4.6 1.8-9.3 2.5-14 2.5z" fill="#fff"/><path d="m56 479.7h888" fill="none"/></g><path d="m32.6 92 32.2-32.2h871.2l29.4 29.4v618.8l-35.5 35.5h-682.8l-229.7-229.7z" fill="#fff"/><path d="m238.7 755c4.2 4.2 9.9 6.5 15.8 6.5h647.2c49.2 0 89.3-40 89.3-89.3v-535.6c0-49.2-40-89.3-89.3-89.3h-803.4c-49.3 0-89.3 40.1-89.3 89.3v379.3c0 5.9 2.4 11.6 6.5 15.8zm25-38.1-210.1-210.2v-370.1c0-24.6 20-44.6 44.6-44.6h803.5c24.6 0 44.6 20 44.6 44.6v535.6c0 24.6-20 44.6-44.6 44.6h-638z" fill="#fff"/><g enable-background="new" fill="#1ba0b4"><path d="m83.4 506.4v-51.1h131.5c21 0 36.9-4.1 47.7-12.4 10.8-8.2 16.3-20.3 16.3-36.3 0-12.4-4.2-23.2-12.5-32.4s-24-19.7-46.9-31.3l-64.5-33.1c-23.7-12-41.2-25.9-52.7-41.6-11.6-15.6-17.3-33.5-17.3-53.6 0-28.9 10.5-51.6 31.5-68.3s49.8-25 86.3-25h111.3v50.8h-128.2c-14.7 0-26.4 3.7-35.1 11.2-8.7 7.4-13 17.3-13 29.5 0 11.1 3.8 20.8 11.4 28.9 7.6 8.2 25.9 19.7 54.7 34.6l56.2 28.5c24.6 12.6 42.7 26.9 54.5 43 11.7 16.1 17.6 34.9 17.6 56.2 0 32.5-11.1 57.6-33.2 75.6-22.1 17.9-53.5 26.9-94 26.9h-121.6z"/><path d="m390 506.4v-385.1h51.4v385.1z"/><path d="m490.3 506.4 48.9-343.2c2.3-15.4 6.9-27.1 13.7-35s15.9-11.8 27.2-11.8c9.7 0 18 3.3 25 9.8s12.4 16.1 16.1 28.6l86.1 274.3 85.3-274.3c3.9-12.5 9.4-22.1 16.4-28.6s15.3-9.8 25-9.8c11.3 0 20.3 3.9 27.2 11.8 6.8 7.9 11.4 19.5 13.7 35l48.9 343.2h-48.9l-44.1-317.4-88.2 282.7c-4.3 13.6-9.2 23.5-14.8 29.7s-12.4 9.3-20.4 9.3c-8.4 0-15.4-3-20.8-8.9-5.5-5.9-10.4-16-14.9-30.1l-88.3-282.7-43.6 317.4z"/></g><g enable-background="new" fill="#1ba0b4"><path d="m267.2 684.1v-93.2c0-10.1.6-18 1.7-23.7s3-10.8 5.7-15.3c4.7-7.9 10.8-14 18.3-18.2 7.6-4.3 16-6.4 25.3-6.4 14 0 25.9 4.9 35.8 14.7s14.8 21.6 14.8 35.3c0 14.2-4.9 26-14.7 35.4s-22.1 14.1-37.1 14.1h-21.8v-19.5h19.1c10.2 0 18.3-2.8 24.4-8.4s9.1-13 9.1-22.2c0-8.5-2.9-15.7-8.7-21.5s-12.9-8.7-21.4-8.7c-9.3 0-16.7 3.1-22.1 9.4-5.4 6.2-8.1 14.7-8.1 25.5v102.6h-20.3z"/><path d="m387.1 684.1v-154h18.9v58.6c4.4-4.2 9-7.2 13.8-9.3 4.8-2 10-3 15.4-3 13.1 0 23.3 4.3 30.6 13 7.2 8.7 10.9 20.9 10.9 36.7v58h-18.9v-61c0-9-2.2-16-6.5-20.9s-10.5-7.3-18.6-7.3c-7.9 0-14.3 2.9-19.3 8.8-4.9 5.9-7.4 13.7-7.4 23.3v57h-18.9z"/><path d="m495 631.2c0-7.3 1.4-14.3 4.1-20.9s6.7-12.5 11.8-17.9c5.1-5.2 10.8-9.1 17.2-11.8 6.3-2.7 13.1-4 20.3-4s14 1.3 20.4 4c6.5 2.7 12.2 6.6 17.2 11.8 5.1 5.2 9 11.1 11.7 17.8s4 13.7 4 21c0 7.5-1.3 14.5-4 21.2s-6.6 12.6-11.7 17.8c-5 5.2-10.8 9.1-17.2 11.8-6.5 2.7-13.3 4-20.4 4-7.2 0-13.9-1.3-20.3-4-6.3-2.7-12.1-6.6-17.2-11.8-5.2-5.2-9.1-11.2-11.8-17.9-2.8-6.6-4.1-13.7-4.1-21.1zm19.6-.2c0 10.3 3.3 19 9.8 26.1 6.6 7.1 14.5 10.7 23.8 10.7s17.3-3.6 23.8-10.7c6.6-7.1 9.8-15.8 9.8-26.1 0-10.2-3.3-18.8-9.8-25.9s-14.5-10.7-23.9-10.7c-9.3 0-17.3 3.5-23.8 10.7s-9.7 15.7-9.7 25.9z"/><path d="m619.6 684.1v-57.6c0-15.3 4.1-27.5 12.3-36.5s19.1-13.4 32.7-13.4 24.5 4.5 32.6 13.4c8.1 9 12.2 21.1 12.2 36.5v57.6h-18.7v-61c0-8.3-2.4-15.1-7.3-20.3-4.8-5.2-11.1-7.9-18.8-7.9-7.6 0-13.9 2.6-18.8 7.9-4.9 5.2-7.4 12-7.4 20.3v61z"/><path d="m834.2 637.4c-2.7 15.1-8.8 27-18.3 35.7-9.5 8.8-21.2 13.1-34.9 13.1-4.7 0-9.3-.6-13.8-1.9-4.6-1.3-8.8-3.1-12.9-5.5-8.5-5.2-15-11.9-19.7-20.2s-7-17.5-7-27.4c0-7.3 1.3-14.3 4-20.9s6.6-12.5 11.7-17.9c5.1-5.2 10.9-9.2 17.4-11.9s13.3-4.1 20.5-4.1c10.7 0 20.2 2.8 28.7 8.4 8.4 5.6 15.3 13.8 20.5 24.6l-69.2 38.3-8-14.3 51.3-28.6c-3.2-3.5-6.7-6.2-10.7-8-3.9-1.8-8.2-2.7-12.9-2.7-9.5 0-17.4 3.5-23.9 10.6s-9.7 15.8-9.7 26.2c0 10.3 3.3 19 9.8 26.1s14.5 10.7 23.9 10.7c9 0 16.5-3 22.5-8.9 6.1-5.9 9.8-14 11.3-24.4z"/><path d="m848.3 666h45.6c4.6 0 8.2-.9 10.8-2.7s3.9-4.3 3.9-7.4c0-2.7-1-4.9-3-6.8s-5.7-3.9-11.1-6.2l-18.1-7.3c-10.6-4.3-17.9-8.7-21.9-13.2s-6-10.2-6-17.2c0-8.6 3-15.2 9.1-19.8s14.8-6.9 26.3-6.9h39.1v17.6h-44.1c-3.6 0-6.4.8-8.4 2.4s-3 3.8-3 6.7c0 2.2.9 4.1 2.7 5.8s4.8 3.4 8.9 5.2l19 7.7c11.8 4.9 19.8 9.6 23.9 14.1s6.2 10.3 6.2 17.2c0 9.8-3.6 17-10.9 21.7-7.2 4.7-18.4 7.1-33.5 7.1h-35.6v-18z"/></g></svg>