<svg enable-background="new 0 0 1000 800" viewBox="0 0 1000 800" xmlns="http://www.w3.org/2000/svg" xmlns:xlink="http://www.w3.org/1999/xlink"><linearGradient id="a"><stop offset=".00000034098" stop-color="#1ba0b4"/><stop offset="1" stop-color="#80cbd7"/></linearGradient><linearGradient id="b" gradientTransform="matrix(1 0 0 -1 0 800)" gradientUnits="userSpaceOnUse" x1="16.8001" x2="966.0001" xlink:href="#a" y1="398.35" y2="398.35"/><linearGradient id="c" gradientTransform="matrix(1 0 0 -1 0 800)" gradientUnits="userSpaceOnUse" x1="8.3" x2="991.7" xlink:href="#a" y1="395.65" y2="395.65"/><path d="m32 91.5 32.2-32.2h872.4l29.4 29.5v619.6l-35.6 35.6h-683.6l-230-230z" fill="url(#b)"/><path d="m238.4 755.4c4.2 4.2 9.9 6.5 15.8 6.5h648.1c49.3 0 89.4-40.1 89.4-89.4v-536.3c0-49.3-40.1-89.4-89.4-89.4h-804.6c-49.3 0-89.4 40.1-89.4 89.4v379.8c0 5.9 2.4 11.6 6.5 15.8zm25-38.1-210.4-210.5v-370.6c0-24.6 20.1-44.7 44.7-44.7h804.5c24.6 0 44.7 20.1 44.7 44.7v536.4c0 24.6-20.1 44.7-44.7 44.7z" fill="url(#c)"/><g fill="#fff"><g enable-background="new"><path d="m82.8 506.6v-51.2h131.7c21 0 36.9-4.1 47.8-12.4s16.3-20.4 16.3-36.4c0-12.4-4.2-23.2-12.5-32.5-8.3-9.2-24-19.7-47-31.4l-64.6-33.1c-23.7-12-41.3-25.9-52.8-41.6s-17.2-33.6-17.2-53.7c0-28.9 10.5-51.7 31.5-68.4s49.8-25 86.5-25h111.5v50.9h-128.6c-14.7 0-26.4 3.7-35.1 11.2s-13.1 17.3-13.1 29.5c0 11.1 3.8 20.8 11.4 29s25.9 19.7 54.8 34.6l56.3 28.5c24.6 12.6 42.8 26.9 54.5 43.1 11.8 16.2 17.6 34.9 17.6 56.3 0 32.5-11.1 57.7-33.3 75.7s-53.6 26.9-94.1 26.9z"/><path d="m389.8 506.6v-385.7h51.4v385.7z"/><path d="m490.3 506.6 49-343.6c2.3-15.4 6.9-27.1 13.7-35s15.9-11.8 27.2-11.8c9.7 0 18 3.3 25 9.8 7 6.6 12.4 16.1 16.2 28.7l86.2 274.7 85.4-274.8c3.9-12.6 9.4-22.1 16.4-28.7s15.4-9.8 25-9.8c11.3 0 20.4 4 27.2 11.8 6.8 7.9 11.4 19.6 13.7 35l49 343.6h-49l-44.2-317.8-88.3 283.1c-4.3 13.6-9.2 23.6-14.8 29.8s-12.4 9.3-20.5 9.3c-8.4 0-15.4-3-20.9-8.9s-10.5-16-14.9-30.2l-88.3-283.1-43.6 317.8h-49.5z"/></g><g enable-background="new"><path d="m266.9 684.5v-93.3c0-10.1.6-18 1.7-23.8 1.1-5.7 3.1-10.8 5.7-15.4 4.7-7.9 10.8-14 18.4-18.3s16-6.4 25.4-6.4c14 0 26 4.9 35.9 14.7s14.9 21.6 14.9 35.4c0 14.2-4.9 26.1-14.7 35.5s-22.2 14.2-37.1 14.2h-21.9v-19.5h19.2c10.2 0 18.3-2.8 24.4-8.4s9.1-13 9.1-22.2c0-8.5-2.9-15.7-8.7-21.5s-13-8.7-21.4-8.7c-9.3 0-16.7 3.1-22.1 9.4-5.4 6.2-8.1 14.8-8.1 25.5v102.8z"/><path d="m386.9 684.5v-154.3h19v58.7c4.4-4.2 9-7.3 13.8-9.3s10-3 15.5-3c13.1 0 23.3 4.3 30.6 13s10.9 20.9 10.9 36.7v58.1h-19v-61.1c0-9-2.2-16-6.5-20.9s-10.5-7.3-18.6-7.3c-7.9 0-14.3 2.9-19.3 8.8s-7.4 13.7-7.4 23.4v57.1h-19z"/><path d="m495 631.5c0-7.3 1.4-14.3 4.1-20.9s6.7-12.6 11.9-17.9c5.1-5.2 10.8-9.1 17.2-11.8s13.1-4 20.3-4 14 1.3 20.5 4 12.2 6.6 17.2 11.8c5.1 5.2 9 11.1 11.7 17.8s4 13.7 4 21c0 7.5-1.3 14.6-4 21.3s-6.6 12.7-11.7 17.8c-5 5.2-10.8 9.1-17.2 11.8-6.5 2.7-13.3 4-20.5 4s-14-1.3-20.3-4c-6.4-2.7-12.1-6.6-17.2-11.8-5.2-5.2-9.1-11.2-11.9-17.9-2.7-6.7-4.1-13.8-4.1-21.2zm19.7-.3c0 10.3 3.3 19 9.9 26.1s14.5 10.7 23.9 10.7c9.3 0 17.3-3.6 23.9-10.7s9.9-15.9 9.9-26.1-3.3-18.9-9.8-26-14.5-10.7-23.9-10.7c-9.3 0-17.3 3.6-23.9 10.7s-10 15.8-10 26z"/><path d="m619.9 684.5v-57.6c0-15.4 4.1-27.5 12.3-36.5s19.1-13.5 32.7-13.5 24.5 4.5 32.6 13.5 12.2 21.2 12.2 36.5v57.6h-18.7v-61.1c0-8.3-2.4-15.1-7.3-20.4-4.8-5.2-11.1-7.9-18.8-7.9-7.6 0-13.9 2.6-18.8 7.9-4.9 5.2-7.4 12-7.4 20.4v61.1z"/><path d="m834.7 637.7c-2.7 15.1-8.8 27-18.3 35.8-9.6 8.8-21.2 13.1-34.9 13.1-4.7 0-9.3-.6-13.8-1.9-4.6-1.3-8.9-3.1-12.9-5.5-8.5-5.2-15-11.9-19.7-20.3-4.7-8.3-7-17.5-7-27.5 0-7.3 1.3-14.3 4-20.9s6.6-12.6 11.7-17.9c5.1-5.2 10.9-9.2 17.4-12 6.5-2.7 13.3-4.1 20.5-4.1 10.7 0 20.3 2.8 28.7 8.5 8.4 5.6 15.3 13.8 20.5 24.6l-69.3 38.4-8-14.3 51.4-28.7c-3.2-3.5-6.7-6.2-10.7-8s-8.3-2.7-12.9-2.7c-9.5 0-17.5 3.5-24 10.6s-9.7 15.8-9.7 26.2c0 10.3 3.3 19.1 9.8 26.2s14.5 10.7 23.9 10.7c9 0 16.5-3 22.6-8.9s9.9-14.1 11.4-24.4z"/><path d="m848.8 666.4h45.7c4.6 0 8.2-.9 10.8-2.7s3.9-4.3 3.9-7.4c0-2.7-1-4.9-3-6.8s-5.7-3.9-11.2-6.2l-18.1-7.3c-10.6-4.3-18-8.7-22-13.2s-6-10.2-6-17.2c0-8.6 3.1-15.2 9.2-19.8s14.9-6.9 26.3-6.9h39.1v17.7h-44.2c-3.6 0-6.4.8-8.4 2.4s-3 3.8-3 6.7c0 2.2.9 4.1 2.7 5.8s4.8 3.4 8.9 5.2l19.1 7.8c11.8 4.9 19.8 9.6 24 14.1 4.1 4.5 6.2 10.3 6.2 17.2 0 9.8-3.6 17-10.9 21.8-7.3 4.7-18.4 7.1-33.5 7.1h-35.7v-18.3z"/></g></g></svg>