<svg enable-background="new 0 0 512 512" viewBox="0 0 512 512" xmlns="http://www.w3.org/2000/svg"><path d="m373.5 305.2-.2 1.6c-46.9-23.4-51.8-26.5-57.9-17.4-4.2 6.3-16.4 20.6-20.1 24.8s-7.4 4.5-13.8 1.6c-6.4-3.2-26.9-9.9-51.3-31.7-18.9-17-31.7-37.8-35.4-44.2-6.3-10.8 6.8-12.3 18.7-34.9 2.1-4.5 1-8-.5-11.2-1.6-3.2-14.3-34.6-19.7-47.1-5.1-12.3-10.3-10.7-14.3-10.7-12.3-1.1-21.3-.9-29.2 7.3-34.4 37.8-25.7 76.9 3.7 118.4 57.9 75.8 88.7 89.7 145.2 109.1 15.2 4.8 29.1 4.2 40.1 2.6 12.2-1.9 37.7-15.4 43-30.4 5.4-15 5.4-27.5 3.8-30.4-1.5-2.9-5.7-4.5-12.1-7.4z"/><path d="m437.8 73.6c-164.1-158.6-435.5-43.6-435.6 180.1 0 44.7 11.7 88.3 34 126.8l-36.2 131.5 135.1-35.2c168.6 91.1 376.8-29.9 376.9-222.9 0-67.8-26.5-131.5-74.6-179.4zm31.6 179.5c-.2 162.9-178.9 264.6-320.3 181.5l-7.7-4.6-80 20.8 21.5-77.8-5.1-8c-88-140 13.1-323.1 179.7-323.1 56.6 0 109.8 22.1 149.8 62.1 40 39.7 62.1 92.8 62.1 149.1z"/></svg>