<svg enable-background="new 0 0 960 960" viewBox="0 0 960 960" xmlns="http://www.w3.org/2000/svg"><path d="m-21-21h1001.9v1001.9h-1001.9z" fill="#fff" opacity=".5"/><path d="m304.7 620.8c15.9-13.2 18.6-29.6 18.6-44.3v-61.8h-86.2v83.8c0 12-9.7 21.7-21.7 21.7s-20.9-9.7-20.9-21.7v-237.3c0-12 8.9-21.7 20.9-21.7 11.9 0 21.7 9.7 21.7 21.7v84.3h86.1v-87.5c0-48.3-31.6-88.1-108.5-88.2-79 0-108.8 40-108.8 88.3v247.8c0 47.9 38 84.1 86.6 84.1h26.7zm339.9 9.7v-272.3h-59.5v-80.2h215.3v80.2h-59.8v331.4h-25.5z" opacity=".5"/><path d="m683.2 690.2-209.7-175.7-217.3 175.7z" fill="#f6d33c" opacity=".5"/><path d="m533.4 278.4h-120.2l-70 314 130.3-105.2 135.9 113.8zm-83.1 188.7 23.2-118.7 23.1 118.7zm415.5-176.1c6.7 0 12.4 2.4 17.2 7.1 4.7 4.7 7.1 10.4 7.1 17.2 0 6.7-2.4 12.5-7.1 17.3s-10.4 7.1-17.2 7.1-12.5-2.4-17.2-7.1c-4.6-4.5-7.2-10.8-7-17.3 0-6.7 2.4-12.4 7.1-17.2 4.5-4.6 10.7-7.2 17.1-7.1zm28.3 24.3c0-7.8-2.8-14.4-8.3-19.9s-12.2-8.2-20-8.2c-7.5-.1-14.6 2.8-19.9 8.2-5.4 5.2-8.4 12.4-8.3 19.9 0 7.8 2.7 14.5 8.2 20s12.1 8.3 19.9 8.3 14.5-2.8 20-8.3c5.7-5.6 8.4-12.2 8.4-20zm-20.7-6.1c0 2.4-1.1 4-3.2 4.8-1.7.5-3.5.8-5.2.7h-5v-11.1h4.7c6 0 8.7 1.2 8.7 5.6zm-18.9-9.4v30.9h5.5v-12.1h4.3c2.9 0 4.9.3 6.1 1 2 1.1 2.9 3.5 2.9 7v2.4l.1 1c0 .1 0 .2.1.3l.1.3h5.1l-.2-.4c-.3-2.4-.3-6.1-.3-6.1 0-3.9-3-7.3-6.9-7.8 5.5-.9 7.4-3.4 7.4-7.6 0-3.9-1.6-6.5-4.8-7.9-1.8-.8-4.6-1.1-8.5-1.1z" opacity=".5"/></svg>