<svg id="Livello_1" data-name="Livello 1" xmlns="http://www.w3.org/2000/svg" viewBox="0 0 960 960"><rect x="-20.95" y="-20.95" width="1001.9" height="1001.9" fill="#fff" opacity="0.5"/><g id="图层_1" opacity="0.5"><path d="M285.4,394.35A85.6,85.6,0,1,1,199.8,480,85.57,85.57,0,0,1,285.4,394.35Zm0,29.6a56,56,0,1,1-56,56A56,56,0,0,1,285.4,424Z" fill-rule="evenodd"/><polygon points="157.5 565.55 125.1 565.55 125.1 494.25 60.3 494.25 60.3 565.55 27.9 565.55 27.9 396.95 60.3 396.95 60.3 461.85 125.1 461.85 125.1 396.95 157.5 396.95 157.5 565.55"/><path d="M543.1,565.55h-25l-72-106.2v106.2H414.5V397.45h25.4l72.6,100.8-1-101.3H543C543.1,397,543.1,565.55,543.1,565.55Z"/><path d="M800.7,397h70.9c16.9,0,31.1,10.9,36.7,17.4,4.7,5.4,12.6,19,12.6,34.1,0,8.6-1,22.3-6.9,32.1-5.5,9.1-16.6,19.4-29.4,22.5l47.5,62.6H894.2l-63.4-73.6v73.6H800.7V397Zm32.4,29.2v49.5h27.7c19.2,0,28.2-11.6,28.5-25.1.3-12.3-12.5-24.5-25.4-24.4Z"/><path d="M672.3,394.35A85.6,85.6,0,1,1,586.7,480,85.57,85.57,0,0,1,672.3,394.35Zm0,29.6a56,56,0,1,1-56,56,56,56,0,0,1,56-56Z" fill-rule="evenodd"/></g></svg>