<svg id="Livello_1" data-name="Livello 1" xmlns="http://www.w3.org/2000/svg" viewBox="0 0 960 960"><rect x="-20.95" y="-20.95" width="1001.9" height="1001.9" fill="#fff" opacity="0.5"/><path d="M74.7,553.7H31.5V406.8h74.7l85.7,109.7V406.8h43.2V553.7H161.9L74.7,442.2V553.7m367-45.4c0,20.4-3.6,27.5-9.6,34.2-9.2,10-22.5,13.1-48.2,13.1H310.1c-25.7,0-39-3-48.2-13.1-6-6.8-9.6-13.8-9.6-34.2V451.7c0-20.4,3.6-27.4,9.6-34.2,9.2-10.1,22.5-13.1,48.2-13.1h73.8c25.7,0,39,3,48.2,13.1,6,6.8,9.6,13.8,9.6,34.2v56.6m-59.6,10.1c9.9,0,13.3-.6,15.7-2.7,2.2-2,3.2-4.6,3.2-13.2V457.7c0-8.6-1-11.2-3.2-13.2-2.4-2.2-5.8-2.7-15.7-2.7H312c-9.9,0-13.3.6-15.7,2.7-2.2,2-3.2,4.6-3.2,13.2v44.8c0,8.6,1,11.2,3.2,13.2,2.4,2.2,5.8,2.7,15.7,2.7h70.1M504.5,406.8V553.7H459.4V406.8h45.1m76.3,0h59.6L560,475.5l90.7,78.2H586.9l-82.4-76.6,76.3-70.3m78.1,0H704V553.7H658.9m217.3,0-13.4-25.6H775.5l-13.2,25.6H712.4l80-146.9h56.1l80,146.9H876.2m-85-57.5h56.1L819.2,443l-28,53.2" fill="#1c4598" opacity="0.5"/></svg>