<svg id="Livello_1" data-name="Livello 1" xmlns="http://www.w3.org/2000/svg" viewBox="0 0 960 960"><rect x="-20.95" y="-20.95" width="1001.9" height="1001.9" fill="#fff"/><path d="M948.85,398.34c12.8,73.3-186.7,169.3-445.7,214.4s-479.2,22.2-492-51.1,186.8-169.3,445.7-214.3C715.85,302.14,936.05,325,948.85,398.34Z" fill="#034ea2"/><polygon points="705.15 507.14 703.85 430.94 727.85 430.94 727.85 527.04 693.25 527.04 669.35 448.14 668.75 448.14 670.15 527.04 646.25 527.04 646.25 430.94 682.25 430.94 704.65 507.14 705.15 507.14" fill="#fff"/><polygon points="268.35 439.94 255.05 528.04 228.85 528.04 246.85 430.94 289.95 430.94 307.95 528.04 281.75 528.04 268.85 439.94 268.35 439.94" fill="#fff"/><polygon points="381.55 505.14 393.55 430.94 433.05 430.94 435.15 528.04 410.95 528.04 410.25 440.74 409.75 440.74 393.55 528.04 368.95 528.04 352.65 440.74 352.15 440.74 351.55 528.04 327.25 528.04 329.45 430.94 369.05 430.94 380.95 505.14 381.55 505.14" fill="#fff"/><path d="M188,500.64a11.88,11.88,0,0,1,.2,7.2c-.8,3.2-3,6.5-9.5,6.5-6.1,0-9.8-3.5-9.8-8.8v-9.4h-26v7.5c0,21.6,17,28.2,35.3,28.2,17.6,0,32-6,34.3-22.2a47.9,47.9,0,0,0-.1-16c-4.1-20.3-40.9-26.4-43.7-37.7a12.63,12.63,0,0,1-.1-5.1c.7-3.1,2.8-6.5,8.9-6.5,5.7,0,9,3.5,9,8.8v6h24.2v-6.8c0-21.2-19-24.5-32.7-24.5-17.3,0-31.4,5.7-34,21.5a34.1,34.1,0,0,0,.2,13.1C148.45,482.34,183,488,188,500.64Z" fill="#fff"/><path d="M503.55,500.44c1,2.3.6,5.3.2,7.1-.8,3.2-3,6.5-9.4,6.5-6,0-9.7-3.5-9.7-8.7V496h-25.8v7.4c0,21.4,16.9,27.9,34.9,27.9,17.4,0,31.7-5.9,34-21.9a46.75,46.75,0,0,0-.1-15.8c-4.1-20.1-40.5-26.1-43.3-37.4a12.13,12.13,0,0,1-.1-5c.7-3.1,2.8-6.4,8.8-6.4,5.6,0,8.9,3.4,8.9,8.7v5.9h24v-6.8c0-20.9-18.8-24.2-32.4-24.2-17.1,0-31.1,5.6-33.6,21.3a33.6,33.6,0,0,0,.2,13C464.45,482.34,498.65,488,503.55,500.44Z" fill="#fff"/><path d="M585.05,513.54c6.7,0,8.8-4.7,9.3-7a14.51,14.51,0,0,0,.2-3.7v-71.9h24.5v69.6a59.33,59.33,0,0,1-.2,6.4c-1.7,18.1-16,24-33.9,24s-32.2-5.9-33.9-24a59.33,59.33,0,0,1-.2-6.4v-69.6h24.5v71.8a21.17,21.17,0,0,0,.2,3.7A9.24,9.24,0,0,0,585.05,513.54Z" fill="#fff"/><path d="M787.55,512.44c7,0,9.5-4.4,9.9-7a22.34,22.34,0,0,0,.2-3.7v-14.1h-10v-14.1h34.4v26c0,1.8-.1,3.2-.3,6.4-1.6,17.7-16.9,24-34.1,24s-32.5-6.3-34.2-24a56.89,56.89,0,0,1-.3-6.4v-40.9c0-1.7.2-4.8.4-6.4,2.2-18.1,16.9-24,34.1-24s32.3,5.8,34.1,24a58.44,58.44,0,0,1,.2,6.4v3.2h-24.4v-5.3a22.72,22.72,0,0,0-.3-3.7c-.4-2.2-2.3-7.1-9.7-7.1-7.1,0-9.1,4.7-9.7,7.1a21.89,21.89,0,0,0-.4,4.6v44.4a22.18,22.18,0,0,0,.3,3.7C778.15,508,780.55,512.44,787.55,512.44Z" fill="#fff"/></svg>