<svg id="Livello_1" data-name="Livello 1" xmlns="http://www.w3.org/2000/svg" viewBox="0 0 960 960"><rect x="-20.95" y="-20.95" width="1001.9" height="1001.9" fill="#fff"/><g id="surface1"><path id="path5" d="M600,557.5H575.4V538.3c-13.5,11.8-30.7,19.2-49.9,19.2a74.6,74.6,0,1,1,74.6-74.6v74.6ZM525.7,382.3a98.9,98.9,0,0,0,0,197.8,100.39,100.39,0,0,0,41.5-9.1l6.7,2.7,50.3,20.9V481.2c.1-54.3-44.1-98.9-98.5-98.9" fill="#00a1e3"/><path id="path7" d="M114.1,540.6c-32,0-58-26.3-58-58.4s26-58.4,58-58.4a58.4,58.4,0,1,1,0,116.8m0-145.8a87.4,87.4,0,1,0,58.4,152.5v22.3h29.4V482.2a87.64,87.64,0,0,0-87.8-87.4" fill="#00a1e3"/><path id="path9" d="M225.1,569.6h29V365.5h-29Z" fill="#00a1e3"/><path id="path11" d="M904.3,569.6h29V365.5h-29Z" fill="#00a1e3"/><path id="path13" d="M364.8,540.6c-32.1,0-58-26.3-58-58.4s26-58.4,58-58.4A59.36,59.36,0,0,1,406.3,441l20.6-20.6a87.4,87.4,0,1,0,0,123.6l-20.6-20.6c-10.8,10.4-25.3,17.2-41.5,17.2" fill="#00a1e3"/><path id="path15" d="M676.9,394.8V365.4h-29V569.5h29V423.7h29v-29" fill="#00a1e3"/><path id="path17" d="M793.3,423.8c27.3,0,49.9,18.6,56.7,43.9H737c6.7-25.3,29.3-43.9,56.3-43.9M837.5,520a57.52,57.52,0,0,1-44.2,20.6c-27,0-49.6-18.6-56.3-43.9H879.7a97.61,97.61,0,0,0,1.4-14.5,88,88,0,1,0-8.8,37.8" fill="#00a1e3"/><path id="path19" d="M525.4,432.3A50.6,50.6,0,1,0,576,482.9a50.53,50.53,0,0,0-50.6-50.6" fill="#00a1e3"/></g></svg>