<svg id="Livello_1" data-name="Livello 1" xmlns="http://www.w3.org/2000/svg" viewBox="0 0 960 960"><rect x="-20.95" y="-20.95" width="1001.9" height="1001.9" fill="#fff" opacity="0.5"/><g opacity="0.5"><path d="M352.4,67.8H163.1a95.41,95.41,0,0,0-95.3,95.3V352.5a95.41,95.41,0,0,0,95.3,95.3H352.5a95.41,95.41,0,0,0,95.3-95.3V163.1A95.43,95.43,0,0,0,352.4,67.8Zm31,284.6a30.92,30.92,0,0,1-30.9,30.9H163.1a30.92,30.92,0,0,1-30.9-30.9V163.1a30.92,30.92,0,0,1,30.9-30.9H352.5a30.92,30.92,0,0,1,30.9,30.9Z" fill="#19a1b6"/><path d="M795.6,67.8H608.8a96.66,96.66,0,0,0-96.6,96.6V351.2a96.66,96.66,0,0,0,96.6,96.6H795.6a96.66,96.66,0,0,0,96.6-96.6V164.4A96.66,96.66,0,0,0,795.6,67.8Zm32.2,283.4a32.18,32.18,0,0,1-32.2,32.2H608.8a32.18,32.18,0,0,1-32.2-32.2V164.4a32.18,32.18,0,0,1,32.2-32.2H795.6a32.18,32.18,0,0,1,32.2,32.2Z" fill="#19a1b6"/><path d="M352.4,512.2H163.1a95.41,95.41,0,0,0-95.3,95.3V796.9a95.41,95.41,0,0,0,95.3,95.3H352.5a95.41,95.41,0,0,0,95.3-95.3V607.6A95.51,95.51,0,0,0,352.4,512.2Zm31,284.7a30.92,30.92,0,0,1-30.9,30.9H163.1a30.92,30.92,0,0,1-30.9-30.9V607.6a30.92,30.92,0,0,1,30.9-30.9H352.5a30.92,30.92,0,0,1,30.9,30.9Z" fill="#19a1b6"/><path d="M795.6,512.2H608.8a96.66,96.66,0,0,0-96.6,96.6V795.6a96.66,96.66,0,0,0,96.6,96.6H795.6a96.66,96.66,0,0,0,96.6-96.6V608.8A96.73,96.73,0,0,0,795.6,512.2Zm32.2,283.4a32.18,32.18,0,0,1-32.2,32.2H608.8a32.18,32.18,0,0,1-32.2-32.2V608.8a32.18,32.18,0,0,1,32.2-32.2H795.6a32.18,32.18,0,0,1,32.2,32.2Z" fill="#19a1b6"/></g></svg>