<svg id="Livello_1" data-name="Livello 1" xmlns="http://www.w3.org/2000/svg" viewBox="0 0 960 960"><rect x="-20.95" y="-20.95" width="1001.9" height="1001.9" fill="#fff"/><path id="path4" d="M829.8,722.11a467.85,467.85,0,0,1-46.6,83.8c-24.5,34.9-44.6,59.1-60,72.6q-36,33-77.2,34c-19.7,0-43.6-5.6-71.3-17s-53.4-17-76.7-17c-24.5,0-50.8,5.6-78.9,17s-50.8,17.3-68.2,17.9q-39.6,1.65-78.9-34.9-25-21.9-62.8-75.1-40.35-56.85-66.4-131.9-27.9-81.15-27.9-157.2,0-87.15,37.7-150.2,29.7-50.55,79-79.9a212.4,212.4,0,0,1,106.7-30.1c21,0,48.4,6.5,82.6,19.2,34,12.8,55.9,19.3,65.5,19.3q10.8,0,72.6-22.7,58.35-21,98.7-17.5,109.35,8.85,164.2,86.4-97.8,59.25-96.9,165.9.9,82.95,60.1,137.9a196.88,196.88,0,0,0,60,39.4c-4.8,13.9-9.9,27.3-15.3,40.1ZM662.5,63.91q0,65.1-47.4,121.3c-38.1,44.5-84.2,70.3-134.2,66.2a143,143,0,0,1-1-16.4c0-41.6,18.1-86.2,50.3-122.6,16.1-18.4,36.5-33.8,61.3-46,24.7-12,48.1-18.7,70.1-19.9a144.88,144.88,0,0,1,.9,17.4Z"/></svg>