<svg enable-background="new 0 0 512 512" viewBox="0 0 512 512" xmlns="http://www.w3.org/2000/svg"><g fill="#fff"><path d="m479.2 91.9h-446.4c-18.1 0-32.8-14.7-32.8-32.8s14.7-32.8 32.8-32.8h446.4c18.1 0 32.8 14.7 32.8 32.8s-14.7 32.8-32.8 32.8z"/><path d="m295.4 288.8h-262.6c-18.1 0-32.8-14.7-32.8-32.8s14.7-32.8 32.8-32.8h262.6c18.1 0 32.8 14.7 32.8 32.8s-14.7 32.8-32.8 32.8z"/><path d="m713.2 217.8h-52.5c-18.1 0-32.8-14.7-32.8-32.8s14.7-32.8 32.8-32.8h52.5c18.1 0 32.8 14.7 32.8 32.8s-14.7 32.8-32.8 32.8z"/><path d="m479.2 485.7h-446.4c-18.1 0-32.8-14.6-32.8-32.8s14.7-32.8 32.8-32.8h446.4c18.1 0 32.8 14.7 32.8 32.8 0 18.2-14.7 32.8-32.8 32.8z"/></g></svg>