<svg id="Livello_1" data-name="Livello 1" xmlns="http://www.w3.org/2000/svg" viewBox="0 0 960 960"><rect x="-20.95" y="-20.95" width="1001.9" height="1001.9" fill="#fff" opacity="0.5"/><g id="g11533" opacity="0.5"><path id="path4250" d="M329.34,745.35v74.2c0,21.1-10.5,32.3-29.5,32.3s-29.6-11.6-29.6-33.2v-73.2h-26.3v74.1c0,36.5,20.3,57.3,55.6,57.3,35.6,0,56.1-21.3,56.1-58.4v-73.1Zm96.7,0-57.1,129.5h26.8l11-25.1.8-1.9h59.3l11.6,27H506l-56.6-128.7-.5-.8Zm156.3,0-29.4,89.1-28.6-89h-28L541.54,875h21.8l29.5-85.1,29.5,85.1h21.9l45-129.5h-27.3l-28.7,89-29.4-89.1Zm257.2,0v129.4h25.9V745.35Zm-743.9,0v129.5h26.3v-52.6h59.4v52.6h26.3V745.35h-26.3v52.3h-59.4v-52.3Zm614.7.1v129.4h97.8v-23.6h-71.9v-32.1H784v-23.6h-47.8v-26.5h69.4v-23.6Zm-273.1,32.7,18.7,43.4h-.1l1.3,3h-39.8l1.3-3h0Z" fill="#232527"/><path id="path4252" d="M423,83.15c-10.4.9-38.6,7.3-38.6,7.3h0c-63.5,16.4-78.5,74.1-78.5,74.1a110.83,110.83,0,0,0-4.9,29v12.7a154.49,154.49,0,0,0,5.2,34.4c21.2,94.1,125.5,248.7,148,281.1,1.6,1.6,2.9,1,2.9,1a2.93,2.93,0,0,0,2.2-3h0c34.5-345.1-36.3-436.6-36.3-436.6Zm114.1,0s-71.1,91.5-36.5,436.9h0a2.87,2.87,0,0,0,1.8,2.6,2.83,2.83,0,0,0,3.5-1.3h0c23-33.3,126.7-187,147.8-280.8,0,0,11.5-45.4.4-76.1,0,0-15.7-58.5-79.3-74,.1.1-18.2-4.6-37.7-7.3Zm-327.9,103.6s-60.5,57.4-63.5,118.3h0v9.2c0,.7.1,1.4.1,2.1,2.6,49.1,39.5,78.2,39.5,78.2,59.5,58,203.6,131.2,237.1,147.9.5.2,2.2.7,3.2-.5a3.08,3.08,0,0,0,.8-1.1v-1.5c0-.1-.1-.2-.1-.3h0c-91.6-200.4-217.1-352.3-217.1-352.3Zm541.5,0s-125.1,151.4-216.8,351.4h0s-1.1,2.3.7,3.8a3.79,3.79,0,0,0,1.2.6h1.3c.2-.1.5-.2.7-.3h0c34.4-17.1,177.4-89.8,236.6-147.6,0,0,37.5-30.1,39.5-78.5,4.4-67.2-63.2-129.4-63.2-129.4Zm112.6,198.9s-203.9,109.4-309.4,180.6h0a3.18,3.18,0,0,0-1.2,3.5s1,1.8,2.5,1.8h0c37.8.1,180.7.2,184.3-.4,0,0,18.5-.7,41.3-9.5,0,0,50.8-16.2,77.2-73.9,0,0,12.1-24.1,12.2-58v-1.4a138.1,138.1,0,0,0-6.9-42.7Zm-766.7.5c-18.6,57.4,6.4,103.7,6.5,103.8,26,55,75.7,71.7,75.7,71.7,22.9,9.4,45.9,10.1,45.9,10.1,3.6.7,142.7.1,180-.1a3,3,0,0,0,2.4-1.6,1.69,1.69,0,0,0,.2-.5v-1.4a3.44,3.44,0,0,0-1.1-1.6h0c-105.4-71.2-309.6-180.4-309.6-180.4Zm303.8,203.1-239.9,8.4c26,46.4,69.8,82.4,115.5,71.4,31.5-7.9,102.9-57.6,126.4-74.5l-.1-.1c1.8-1.6,1.2-3,1.2-3-.6-2.2-3.1-2.2-3.1-2.2Zm158.8.2h0c0,.1-2.1.4-2.7,1.9,0,0-.5,2.2.9,3.2h0c23,16.5,92.6,65.1,126.1,74.6a53,53,0,0,0,13.6,2h5.1c22.5-.8,61.6-12.3,97.2-73.5Z" fill="#cf0a2c"/></g></svg>