<svg id="Livello_1" data-name="Livello 1" xmlns="http://www.w3.org/2000/svg" viewBox="0 0 960 960"><rect x="-20.95" y="-20.95" width="1001.9" height="1001.9" fill="#fff"/><g id="layer1"><path id="path1460" d="M269.15,483.52v-98.4h30.6v6.5c0,3.6.1,6.5.1,6.5l4.3-2.6c27.1-17,66.6-22.1,102-13.2,31.9,8,55,27,63.2,52a69,69,0,0,1-.7,44.9c-6.6,17.6-20,31.7-39.5,41.3q-25.5,12.75-58.2,12.7c-18.1,0-34.9-3-49.7-8.9a120.94,120.94,0,0,1-18-9.1l-3.5-2.3v69h-30.6v-98.4ZM386,507.12c17.3-2.4,30.7-7.9,40.7-16.6a46.4,46.4,0,0,0,14.9-25.8,67.05,67.05,0,0,0,0-17.9,47.54,47.54,0,0,0-19.3-29.4,81.23,81.23,0,0,0-17.7-8.8c-14.9-5-33.1-6.5-49.7-4.1-28.8,4.2-48.3,18.5-53.5,39.3a48.32,48.32,0,0,0,1.2,27.7c6.9,19.6,27.3,32.7,56.2,35.9a189.49,189.49,0,0,0,27.2-.3Zm101.7-23.6v-98.4h30.6v6.5c0,3.6.1,6.5.1,6.5s1.8-1.1,3.8-2.3a114.15,114.15,0,0,1,19.5-9.6c25.1-9.3,55.7-10.7,82.5-4,43.7,11,69.4,41,66.9,78.2-1.9,28.4-20.7,51.7-51.8,64-10.1,4-20.5,6.5-33.5,8.1-6.9.9-25.4.9-32.5,0-20.3-2.4-38.1-8.4-52-17.6l-2.9-1.9v69h-30.6v-98.5Zm117.5,23.4c23.9-3.6,40.8-13.2,49.6-28.4,5.1-8.8,7.1-20.5,5.2-31.4-4-22.6-23.8-38.2-54.2-42.7-20.1-2.9-42.7,0-58.1,7.5q-23.55,11.55-28.4,34.5c-.8,4-.8,14.4,0,18.3a46.08,46.08,0,0,0,15.3,26c10.8,9.1,24.9,14.5,43.1,16.6,5.9.8,21.5.5,27.5-.4ZM142.35,533c-16.3-1.4-30.2-4.6-42-9.7-26.9-11.5-43.8-30.9-48.5-55.3a90.53,90.53,0,0,1-.6-20.2c3.3-29.3,24.9-52.5,59.1-63.5,18.2-5.8,40.5-7.7,60.6-5.2,36.8,4.7,64.6,21.8,76.8,47.1a68,68,0,0,1-3.3,64.9c-5.4,8.7-14.3,17.6-23.4,23.6-14.2,9.3-31.2,15.1-51.9,17.7-4,.5-22.9,1-26.8.6Zm21.8-25.6c16-1.7,29.5-6.3,39.6-13.4a48.86,48.86,0,0,0,17.8-23.4c1.7-5.2,2.1-7.7,2.1-14.8s-.3-9.6-2-14.8c-5.6-17.2-22-30-45-35-20.1-4.4-43.6-2.9-61,4-12.5,5-22.4,13-28.2,23-6.2,10.6-7.6,25-3.6,37.4,4.2,13.4,15.4,24.6,30.8,30.8a104.38,104.38,0,0,0,29,6.7c3.8.1,16.4-.1,20.5-.5ZM797.25,533c-.6-.1-2.9-.3-5-.5-16.9-1.6-34.8-7-47.8-14.4-17.7-10-29.9-24.2-35.6-41.2a69.12,69.12,0,0,1-1.8-36.1c4-17.9,14.9-33.1,31.8-44.3,22.3-14.8,55.1-21.4,86.8-17.4,26.3,3.3,48,12.9,63.1,28,11.5,11.5,18.1,24.9,20,40.7a86,86,0,0,1-.2,16.8c-4.1,31.4-29,55.3-67.1,64.6-11.5,2.8-18.8,3.7-32.4,3.8-5.9.1-11.2.1-11.8,0Zm20.1-25.5c20.3-1.9,36.8-8.5,47.4-19.2a44.51,44.51,0,0,0,13-24.7,62.75,62.75,0,0,0,0-16.2c-3.7-22-23.1-38-51.8-42.6a104.9,104.9,0,0,0-18.7-1.5c-32.2,0-57.2,12.2-66.9,32.5a44.22,44.22,0,0,0-4.2,19.8,43.75,43.75,0,0,0,7.5,25.6c9.6,14.4,27.7,23.5,51.7,26.1a146.89,146.89,0,0,0,22,.2Z" fill="#006b33"/></g></svg>