<svg id="Livello_1" data-name="Livello 1" xmlns="http://www.w3.org/2000/svg" viewBox="0 0 960 960"><rect x="-20.95" y="-20.95" width="1001.9" height="1001.9" fill="#fff" opacity="0.5"/><g opacity="0.5"><path d="M874.77,907.24H85.23a32.46,32.46,0,0,1-32.46-32.46V85.17A32.42,32.42,0,0,1,85.23,52.76H874.77a32.45,32.45,0,0,1,32.46,32.41V874.78a32.49,32.49,0,0,1-32.46,32.46" fill="#ff6700" fill-rule="evenodd"/><path d="M722.76,321.52h-67.2a5.15,5.15,0,0,0-5.21,5.11V633.37a5.14,5.14,0,0,0,5.21,5.06h67.2a5.18,5.18,0,0,0,5.21-5.06V326.63a5.15,5.15,0,0,0-5.21-5.11" fill="#fff"/><path d="M493.27,321.52h-256a5.15,5.15,0,0,0-5.21,5.11V633.37a5.14,5.14,0,0,0,5.21,5.06h67.25a5.14,5.14,0,0,0,5.21-5.06V392.67a5.15,5.15,0,0,1,5.22-5.07H459.74c40.72,0,52.31,31.2,52.31,51.3V633.42a5.15,5.15,0,0,0,5.22,5.06h67.2a5.14,5.14,0,0,0,5.21-5.06V415.81c0-17.93-2.18-43.75-25.32-66.49-24.3-23.75-46.38-27.8-71.09-27.8" fill="#fff"/><path d="M446.17,443.66H375.58a5.2,5.2,0,0,0-5.26,5.12V633.37a5.19,5.19,0,0,0,5.26,5.06h70.59a5.18,5.18,0,0,0,5.22-5.06V448.78a5.22,5.22,0,0,0-5.22-5.12" fill="#fff"/></g></svg>